<?xml version="1.0" encoding="UTF-8"?>
<svg version="1.1" xmlns="http://www.w3.org/2000/svg" width="965" height="737">
<path d="M0 0 C0.68725159 0.00060425 1.37450317 0.0012085 2.08258057 0.00183105 C12.49506926 0.02667536 22.66581824 0.3199215 32.9375 2.1875 C33.59186035 2.30577148 34.2462207 2.42404297 34.92041016 2.54589844 C65.67031022 8.34053317 92.36216264 22.76789664 114.9375 44.1875 C116.17981905 45.23831532 117.42890814 46.2812309 118.6875 47.3125 C122.53157961 50.5854074 125.68640538 54.33835667 128.9375 58.1875 C129.75089844 59.10144531 130.56429688 60.01539063 131.40234375 60.95703125 C136.77944419 67.04761079 141.60963425 73.36818331 146.125 80.125 C146.58737061 80.81513184 147.04974121 81.50526367 147.52612305 82.21630859 C154.80694148 93.32463322 161.00756689 105.00783906 166.89477539 116.89624023 C167.89449321 118.91435055 168.90091224 120.92901979 169.90820312 122.94335938 C174.78909636 132.74228908 174.78909636 132.74228908 175.9375 136.1875 C176.93626856 134.29178962 177.9349219 132.39601847 178.93310547 130.5 C179.82570414 128.80548565 180.71929001 127.11149102 181.61376953 125.41796875 C183.98026402 120.93184724 186.32724398 116.43773459 188.62890625 111.91796875 C199.17458456 91.29274074 211.18436213 72.39041692 226.96484375 55.37109375 C228.35681134 53.8302821 229.68965789 52.23505485 230.9765625 50.60546875 C233.26025399 47.78952247 235.74099273 45.600764 238.49609375 43.26171875 C240.27960448 41.74644804 242.03957349 40.20334384 243.78515625 38.64453125 C263.83221668 20.90034516 288.51248803 8.85608817 314.74658203 3.62548828 C316.17469959 3.33999208 317.60040586 3.04206736 319.02294922 2.72998047 C370.8895488 -8.45929992 427.44022243 5.85748825 471.36914062 34.18432617 C481.60783474 41.00613522 490.95554714 48.79610367 499.9375 57.1875 C500.80117188 57.98542969 501.66484375 58.78335938 502.5546875 59.60546875 C539.95579954 95.43464999 559.02785208 150.82706149 560.21875 201.78515625 C560.94705597 242.30611713 554.80522351 283.07850828 537.9375 320.1875 C469.9575 320.1875 401.9775 320.1875 331.9375 320.1875 C317.98074801 294.60012136 317.98074801 294.60012136 312.6875 284.3125 C312.06857005 283.11577925 311.44959055 281.91908413 310.83056641 280.72241211 C307.35709286 273.99050849 303.95324151 267.22694227 300.6015625 260.43359375 C300.24191406 259.70652222 299.88226562 258.97945068 299.51171875 258.23034668 C297.76503526 254.69851952 296.02659945 251.16312611 294.30371094 247.61962891 C293.66894282 246.33089553 293.033867 245.04231365 292.3984375 243.75390625 C291.84978027 242.62927979 291.30112305 241.50465332 290.73583984 240.34594727 C287.96251545 235.47512217 284.76348341 231.28087781 279.875 228.375 C279.22402344 227.97667969 278.57304688 227.57835937 277.90234375 227.16796875 C271.59484858 224.02049104 264.46904397 224.58748098 257.8125 226.3125 C248.73849663 229.43518943 245.35205475 234.78234644 241.19721985 243.13626099 C237.07197033 251.67249865 233.91262699 260.56074532 230.72680664 269.47973633 C228.80148514 274.86662632 226.84180094 280.24104317 224.88671875 285.6171875 C224.48323212 286.72910461 224.07974548 287.84102173 223.66403198 288.9866333 C219.20108945 301.26290132 214.58495268 313.48008902 209.9375 325.6875 C209.33624298 327.26791077 209.33624298 327.26791077 208.72283936 328.88024902 C202.9486794 344.04481055 197.10077021 359.17597058 190.9375 374.1875 C190.2775 374.1875 189.6175 374.1875 188.9375 374.1875 C182.83136486 363.06992133 178.80934204 351.64531372 174.921875 339.60546875 C174.26660813 337.60392592 173.61033387 335.60271265 172.953125 333.60180664 C171.56763571 329.37703153 170.18872127 325.15019428 168.81530762 320.92147827 C166.6768094 314.33717061 164.52390235 307.75763535 162.36816406 301.17895508 C160.22003726 294.62157931 158.07258035 288.0639922 155.93035889 281.50468445 C150.2476803 264.10621583 144.49295349 246.73283896 138.6875 229.375 C137.57925395 226.05725791 136.47125829 222.7394323 135.36332703 219.42158508 C134.71345793 217.47731146 134.06265063 215.53335108 133.41072083 213.58976746 C132.14871454 209.82670952 130.89086755 206.06337463 129.67944336 202.28369141 C129.33534424 201.21683105 128.99124512 200.1499707 128.63671875 199.05078125 C128.36947998 198.20427002 128.10224121 197.35775879 127.8269043 196.4855957 C124.83991206 188.76762756 120.00088942 183.55781049 112.9375 179.4375 C106.42580615 176.84422149 98.08328057 177.15947288 91.5 179.375 C79.91452922 185.26936233 76.49451881 195.77572849 71.8125 207.3125 C71.30408078 208.55369973 70.79527631 209.79474172 70.28613281 211.03564453 C64.55060167 225.0425311 58.90663065 239.08721689 53.24121094 253.12255859 C48.21715277 265.56654299 43.17719969 278.00380349 38.09191895 290.4229126 C37.41595941 292.07409586 36.74072448 293.72557598 36.06628418 295.37738037 C35.1323389 297.66395844 34.1955098 299.94933344 33.2578125 302.234375 C32.99398773 302.88139374 32.73016296 303.52841248 32.45834351 304.19503784 C30.09921796 309.92627939 27.52464274 315.55615129 24.9375 321.1875 C23.50621765 321.19963028 23.50621765 321.19963028 22.04602051 321.21200562 C12.9857494 321.29001026 3.92561852 321.37787856 -5.13446808 321.47502708 C-9.79062513 321.5246468 -14.44676317 321.57097516 -19.10302734 321.609375 C-23.6094886 321.64666732 -28.11577591 321.69313603 -32.62208557 321.74556351 C-34.32813925 321.76387721 -36.03422987 321.77906673 -37.74034119 321.79084396 C-59.28249416 320.98826592 -59.28249416 320.98826592 -78.0625 329.1875 C-83.78168502 335.06125759 -85.27205533 340.48856781 -85.5625 348.5 C-85.37506965 357.11327653 -83.23746912 362.79102141 -77.375 369.0625 C-69.71688542 373.97525275 -62.62959924 375.78413715 -53.60253906 375.78100586 C-52.1125238 375.80374069 -52.1125238 375.80374069 -50.59240723 375.82693481 C-47.33753945 375.87139481 -44.08325293 375.88771411 -40.828125 375.90234375 C-38.54423773 375.9249815 -36.26036277 375.94889317 -33.97650146 375.97401428 C-29.19886037 376.02223136 -24.42137475 376.05679458 -19.64355469 376.08129883 C-13.55329509 376.1133742 -7.46385286 376.1766694 -1.37396622 376.24999142 C3.34117677 376.30371547 8.0563501 376.34202218 12.77167511 376.37570381 C15.01534119 376.39328252 17.25897797 376.41520731 19.50255585 376.44175529 C43.07659684 377.0881863 43.07659684 377.0881863 63.5390625 366.80078125 C66.89571112 363.38388509 68.74498548 359.62376226 70.58984375 355.234375 C70.84314957 354.63341507 71.09645538 354.03245514 71.35743713 353.4132843 C75.12004466 344.43784718 78.73837128 335.40196164 82.375 326.375 C84.88183782 320.15877607 87.39321275 313.94442539 89.91033936 307.73236084 C90.93448437 305.19497142 91.94855484 302.653724 92.96142578 300.11181641 C93.58995055 298.54971667 94.21868321 296.98770055 94.84765625 295.42578125 C95.13176865 294.70496872 95.41588104 293.98415619 95.70860291 293.24150085 C97.7106926 288.3009037 97.7106926 288.3009037 99.9375 287.1875 C108.68784247 311.71379162 117.04197082 336.36208703 125.15179443 361.10631943 C125.87640444 363.31678433 126.60168876 365.52702695 127.32714844 367.73721313 C132.26478352 382.78255522 137.18274742 397.83408233 142.0494566 412.90253067 C144.231957 419.65944906 146.4231256 426.41351854 148.61979389 433.16584396 C150.19070113 437.99737582 151.74917629 442.8326837 153.29832458 447.67123318 C154.26425213 450.67816353 155.24179775 453.68122408 156.22246933 456.6833744 C156.67271419 458.06969065 157.1182183 459.45755772 157.55841446 460.8470974 C160.91054841 471.41599741 164.63734011 480.6576005 173.9375 487.1875 C178.17520452 489.3327907 182.148493 489.52179443 186.8125 489.5 C187.49441406 489.51611328 188.17632812 489.53222656 188.87890625 489.54882812 C196.61156083 489.55619256 202.43505793 486.59544984 207.9375 481.1875 C215.91145265 469.32402923 219.97112285 454.28948048 224.875 441 C225.80948992 438.48564549 226.74461859 435.97153846 227.68066406 433.45776367 C230.01252805 427.19138843 232.33498429 420.92157277 234.6552124 414.65087891 C236.52184738 409.60921413 238.39505878 404.57000511 240.26953125 399.53125 C240.60120804 398.63950577 240.93288483 397.74776154 241.27461243 396.82899475 C242.24539146 394.21926152 243.21639834 391.6096132 244.1875 389 C244.50155792 388.15597626 244.81561584 387.31195251 245.13919067 386.44235229 C247.05796437 381.28619178 248.97823362 376.13059046 250.89929199 370.97528076 C252.01373421 367.98279702 253.12649802 364.98969176 254.23925781 361.99658203 C256.20747259 356.70507861 258.18366676 351.41661005 260.16491699 346.12997437 C260.92532791 344.09740594 261.6832539 342.06390602 262.43859863 340.02944946 C263.48110384 337.22283671 264.53238526 334.41966855 265.5859375 331.6171875 C265.89661163 330.77470963 266.20728577 329.93223175 266.52737427 329.06422424 C268.70931645 323.30159177 268.70931645 323.30159177 270.9375 322.1875 C272.63489221 325.3489564 274.320063 328.51673455 276 331.6875 C276.50515137 332.63987549 277.01030273 333.59225098 277.53076172 334.57348633 C280.50532247 340.24834743 283.1630875 345.9382718 285.5625 351.875 C289.52759213 361.38387834 295.39501037 369.10300873 305.08789605 373.20279121 C314.38632852 376.41595638 324.39358411 376.4752049 334.12638855 376.41455078 C335.38817454 376.4148485 336.64996053 376.41514622 337.94998246 376.41545296 C341.41304706 376.41603783 344.8759711 376.40426515 348.33900344 376.39031315 C352.08882261 376.37746475 355.83864793 376.37641907 359.58848572 376.3739624 C366.07457382 376.36821129 372.5606159 376.35536964 379.04668236 376.33782959 C388.43512568 376.31262855 397.82355218 376.30054675 407.21202377 376.29196286 C422.46159374 376.27785425 437.71114236 376.25627018 452.96069336 376.22851562 C453.87182808 376.22686 454.78296281 376.22520438 455.72170768 376.22349858 C462.18947216 376.21169706 468.65723613 376.19962769 475.125 376.1875 C482.51847297 376.17363949 489.91194614 376.15990567 497.30541992 376.14648438 C498.21634512 376.14482812 499.12727032 376.14317187 500.06579932 376.14146543 C515.26491977 376.11407539 530.4640406 376.0945682 545.66317922 376.08066368 C555.02659267 376.07171575 564.38994266 376.05566571 573.75332651 376.03037405 C580.16770012 376.01349706 586.58205915 376.0037352 592.99645349 375.99952364 C596.69393064 375.99683965 600.39132569 375.99086188 604.08877563 375.97600555 C608.10240905 375.95993997 612.11589697 375.95949867 616.12956238 375.96044922 C617.28997848 375.9532593 618.45039459 375.94606937 619.64597481 375.93866158 C637.51725631 375.98394524 637.51725631 375.98394524 644.3984375 381.51171875 C648.37565366 385.84224092 651.15000414 391.39756993 651.5 397.3125 C650.4883356 404.28174364 647.71650844 409.54086372 642.04486656 413.83981991 C634.17918054 418.86999769 624.99593342 418.6111642 615.98583984 418.55639648 C614.60819704 418.55886966 613.23055613 418.56271328 611.85292053 418.56781006 C608.90591493 418.57609578 605.95910292 418.57538555 603.01209641 418.56762505 C598.34632302 418.5559653 593.68079469 418.56826718 589.01504517 418.58424377 C577.43210286 418.62030261 565.84916772 418.62666784 554.26617432 418.62414551 C545.24974697 418.62243211 536.23352208 418.62960228 527.21715128 418.66412407 C522.5844908 418.68086474 517.9523257 418.67917091 513.31966758 418.66330135 C510.43369724 418.65748563 507.54795964 418.66827708 504.66203117 418.68354797 C502.69795269 418.68902068 500.73384984 418.67470426 498.76982117 418.65968323 C491.62603117 418.71752079 487.05366712 419.45843247 480.9375 423.1875 C479.9475 423.5175 478.9575 423.8475 477.9375 424.1875 C477.25246561 425.51149022 476.59057358 426.8474563 475.9375 428.1875 C474.28247562 430.24991499 472.6088569 432.25659606 470.875 434.25 C469.87285592 435.41594348 468.87156559 436.58262128 467.87109375 437.75 C467.37335449 438.33007812 466.87561523 438.91015625 466.36279297 439.5078125 C464.34400542 441.88692492 462.39219587 444.31811797 460.4375 446.75 C456.34265599 451.78080836 452.01559723 456.55249283 447.60546875 461.3046875 C445.29175129 463.80472189 443.01430061 466.33035741 440.75 468.875 C436.50412585 473.60458133 432.1650273 478.24381541 427.8125 482.875 C427.14323486 483.58809326 426.47396973 484.30118652 425.78442383 485.03588867 C414.5702746 496.93596933 414.5702746 496.93596933 409.0625 501.5625 C406.0528247 504.15384205 403.22661384 506.86004783 400.4375 509.6875 C396.43013726 513.73568477 392.27223165 517.49575355 387.9375 521.1875 C386.8850354 522.09200448 385.8329864 522.99699265 384.78125 523.90234375 C381.77169712 526.49104238 378.75564785 529.07203278 375.73681641 531.64990234 C374.5766774 532.64129386 373.41742905 533.63372904 372.25927734 534.62744141 C364.61811213 541.18325303 356.83002001 547.50776104 348.87548828 553.67919922 C346.80547094 555.2902558 344.7441458 556.91201395 342.68359375 558.53515625 C332.29477095 566.69918672 321.71948929 574.55119313 310.9375 582.1875 C309.72658691 583.04625732 309.72658691 583.04625732 308.49121094 583.92236328 C296.77486124 592.21629352 284.93827658 600.31088007 272.9375 608.1875 C272.26219238 608.63125977 271.58688477 609.07501953 270.89111328 609.53222656 C265.92888608 612.78579072 260.94042551 615.99692068 255.9375 619.1875 C255.04289062 619.75871582 254.14828125 620.32993164 253.2265625 620.91845703 C241.48317742 628.39531755 229.64445767 635.61278342 217.48242188 642.3894043 C209.57557616 646.7970473 201.78357674 651.38154158 194.02880859 656.05126953 C193.17109863 656.56415527 192.31338867 657.07704102 191.4296875 657.60546875 C190.68058105 658.05688232 189.93147461 658.5082959 189.15966797 658.97338867 C183.04207888 662.31581567 177.83959505 663.3517088 170.9375 662.1875 C165.30431289 660.05741102 160.16001424 657.16800975 154.9375 654.1875 C154.07495605 653.69942871 153.21241211 653.21135742 152.32373047 652.70849609 C122.8987968 635.98258024 93.94867642 618.18472564 65.9375 599.1875 C65.3177832 598.76968262 64.69806641 598.35186523 64.05957031 597.92138672 C53.62545639 590.87981415 43.47128124 583.49461977 33.36962891 575.98583984 C30.95770691 574.20244119 28.53395334 572.43654321 26.10546875 570.67578125 C16.78806784 563.90551535 7.77326452 556.88724442 -1.0625 549.5 C-4.76637517 546.40986907 -8.55601796 543.4457085 -12.375 540.5 C-17.98126566 536.15532332 -23.22559716 531.51258279 -28.40234375 526.66796875 C-30.56815502 524.6484531 -32.75784365 522.68321623 -35 520.75 C-46.63261193 510.62590367 -57.58044911 499.82811373 -68.46679688 488.91357422 C-70.95068449 486.42428685 -73.43992683 483.94044298 -75.9296875 481.45703125 C-77.53417518 479.85188331 -79.13835292 478.2464255 -80.7421875 476.640625 C-81.47460663 475.9102301 -82.20702576 475.17983521 -82.9616394 474.42730713 C-87.52872501 469.83960485 -91.84150728 465.09368174 -96.0625 460.1875 C-97.51695517 458.57981627 -98.97470895 456.97510285 -100.4375 455.375 C-104.33686384 451.05408331 -108.03991663 446.60626244 -111.6953125 442.078125 C-113.74017889 439.58109343 -115.83335952 437.13635141 -117.95019531 434.70043945 C-125.23337295 426.27779693 -131.65342064 417.28350351 -138.0625 408.1875 C-138.86304232 407.06363185 -139.66380001 405.93991706 -140.46484375 404.81640625 C-188.05583919 337.25956824 -217.78327741 252.36887644 -204.0625 169.1875 C-196.29457257 125.49746683 -176.23145311 86.74317572 -145.0625 55.1875 C-144.44342773 54.54143799 -143.82435547 53.89537598 -143.18652344 53.22973633 C-138.48034863 48.38339987 -133.52177469 44.22192513 -128.0625 40.25 C-127.23508301 39.64591309 -126.40766602 39.04182617 -125.55517578 38.41943359 C-118.04180294 33.02311233 -110.30511879 28.37177666 -102.0625 24.1875 C-101.39573242 23.84525391 -100.72896484 23.50300781 -100.04199219 23.15039062 C-76.48418517 11.18630188 -51.19963676 4.52937946 -25.0625 1.1875 C-24.32249756 1.09106201 -23.58249512 0.99462402 -22.82006836 0.89526367 C-15.22744264 0.01578779 -7.63536253 -0.01239172 0 0 Z " fill="#453A3A" transform="translate(263.0625,34.8125)"/>
</svg>
